<svg width="34" height="34" viewBox="0 0 34 34" fill="none" xmlns="http://www.w3.org/2000/svg">
<path fill-rule="evenodd" clip-rule="evenodd" d="M10.3845 2.83337H23.602C28.4186 2.83337 31.167 5.55337 31.167 10.3842V23.6159C31.167 28.4184 28.4328 31.1667 23.6161 31.1667H10.3845C5.55362 31.1667 2.83362 28.4184 2.83362 23.6159V10.3842C2.83362 5.55337 5.55362 2.83337 10.3845 2.83337ZM18.162 18.1758H22.1853C22.837 18.1616 23.3611 17.6374 23.3611 16.9858C23.3611 16.3341 22.837 15.8099 22.1853 15.8099H18.162V11.8149C18.162 11.1633 17.6378 10.6391 16.9861 10.6391C16.3345 10.6391 15.8103 11.1633 15.8103 11.8149V15.8099H11.8011C11.4895 15.8099 11.192 15.9374 10.9653 16.1499C10.7528 16.3766 10.6253 16.6727 10.6253 16.9858C10.6253 17.6374 11.1495 18.1616 11.8011 18.1758H15.8103V22.1849C15.8103 22.8366 16.3345 23.3608 16.9861 23.3608C17.6378 23.3608 18.162 22.8366 18.162 22.1849V18.1758Z" fill="#FAFEFF"/>
</svg>