<svg width="25" height="29" viewBox="0 0 25 29" fill="none" xmlns="http://www.w3.org/2000/svg">
<path fill-rule="evenodd" clip-rule="evenodd" d="M12.2591 20.74L16.2847 16.6742C16.6914 16.2492 16.6914 15.5833 16.2706 15.1725C15.8639 14.7617 15.2046 14.7617 14.7979 15.1725L12.5677 17.4392V10.6108C12.5677 10.0158 12.1048 9.54833 11.5297 9.54833C10.9546 9.54833 10.4777 10.0158 10.4777 10.6108V17.4392L8.24753 15.1725C7.84076 14.7617 7.18152 14.7617 6.77476 15.1725C6.36799 15.5833 6.36799 16.2492 6.77476 16.6742L10.7863 20.74C10.8845 20.8392 10.9967 20.91 11.1229 20.9667C11.2492 21.0233 11.3894 21.0517 11.5297 21.0517C11.67 21.0517 11.7962 21.0233 11.9224 20.9667C12.0487 20.91 12.1609 20.8392 12.2591 20.74ZM22.4232 9.95295C22.7529 9.94914 23.1119 9.945 23.4381 9.945C23.8028 9.945 24.0833 10.2283 24.0833 10.5825V21.9725C24.0833 25.4858 21.25 28.3333 17.7715 28.3333H6.62046C2.95957 28.3333 0 25.3442 0 21.6608V6.38917C0 2.87583 2.81931 0 6.32591 0H13.816C14.1667 0 14.4612 0.2975 14.4612 0.651667V5.21333C14.4612 7.80583 16.5652 9.93083 19.146 9.945C19.7388 9.945 20.2693 9.9495 20.7324 9.95343C21.091 9.95647 21.4093 9.95917 21.6848 9.95917C21.8845 9.95917 22.1433 9.95618 22.4232 9.95295ZM22.8146 7.88531C21.6631 7.88956 20.3039 7.88531 19.3263 7.87539C17.7749 7.87539 16.4971 6.58481 16.4971 5.01798V1.28364C16.4971 0.673059 17.2307 0.369892 17.6487 0.810476C18.7292 1.9441 20.3834 3.68159 21.7812 5.14984C22.3468 5.74394 22.8705 6.29396 23.2971 6.74206C23.7067 7.17131 23.4066 7.88389 22.8146 7.88531Z" fill="#FAFEFF"/>
</svg>