<svg width="34" height="34" viewBox="0 0 34 34" fill="none" xmlns="http://www.w3.org/2000/svg">
<path fill-rule="evenodd" clip-rule="evenodd" d="M2.83337 17C2.83337 9.18004 9.19421 2.83337 17 2.83337L17.3964 2.83882C25.0334 3.04894 31.1667 9.31258 31.1667 17C31.1667 24.8059 24.82 31.1667 17 31.1667C9.19421 31.1667 2.83337 24.8059 2.83337 17ZM19.805 22.6667C20.2159 22.2417 20.2159 21.5759 19.7909 21.1651L15.6117 17.0001L19.7909 12.835C20.2159 12.4242 20.2159 11.7442 19.805 11.3334C19.38 10.9084 18.7142 10.9084 18.3034 11.3334L13.3592 16.2492C13.1609 16.4476 13.0475 16.7167 13.0475 17.0001C13.0475 17.2834 13.1609 17.5526 13.3592 17.7509L18.3034 22.6667C18.5017 22.8792 18.7709 22.9784 19.04 22.9784C19.3234 22.9784 19.5925 22.8792 19.805 22.6667Z" fill="white"/>
</svg>