<svg width="34" height="34" viewBox="0 0 34 34" fill="none" xmlns="http://www.w3.org/2000/svg">
<path fill-rule="evenodd" clip-rule="evenodd" d="M23.9974 4.25C25.8972 4.25 27.7247 5.00083 29.0691 6.34808C30.4149 7.6925 31.1672 9.50583 31.1672 11.4042V22.5958C31.1672 26.5483 27.9514 29.75 23.9974 29.75H10.0022C6.04828 29.75 2.83386 26.5483 2.83386 22.5958V11.4042C2.83386 7.45167 6.03411 4.25 10.0022 4.25H23.9974ZM26.2514 13.5149L26.3647 13.4016C26.7033 12.9908 26.7033 12.3958 26.3491 11.9849C26.1522 11.7738 25.8816 11.6449 25.5997 11.6166C25.3022 11.601 25.0189 11.7016 24.8049 11.8999L18.4172 16.9999C17.5955 17.6814 16.4183 17.6814 15.5839 16.9999L9.20886 11.8999C8.76827 11.5741 8.15911 11.6166 7.79219 11.9991C7.40969 12.3816 7.36719 12.9908 7.69161 13.4158L7.87719 13.5999L14.323 18.6291C15.1164 19.2524 16.0783 19.5924 17.0855 19.5924C18.0899 19.5924 19.0689 19.2524 19.8608 18.6291L26.2514 13.5149Z" fill="#FAFEFF"/>
</svg>