<svg width="34" height="34" viewBox="0 0 34 34" fill="none" xmlns="http://www.w3.org/2000/svg">
<path fill-rule="evenodd" clip-rule="evenodd" d="M10.8658 2.83215H23.1483C27.9508 2.83215 31.1666 6.20382 31.1666 11.2188V22.7944C31.1666 27.7952 27.9508 31.1655 23.1483 31.1655H10.8658C6.06325 31.1655 2.83325 27.7952 2.83325 22.7944V11.2188C2.83325 6.20382 6.06325 2.83215 10.8658 2.83215ZM16.9857 12.8353C16.3199 12.8353 15.7674 12.2813 15.7674 11.6028C15.7674 10.9086 16.3199 10.3561 17.014 10.3561C17.694 10.3561 18.2465 10.9086 18.2465 11.6028C18.2465 12.2813 17.694 12.8353 16.9857 12.8353ZM18.2325 22.3552C18.2325 23.0352 17.68 23.5877 16.9858 23.5877C16.3058 23.5877 15.7533 23.0352 15.7533 22.3552V16.0936C15.7533 15.4121 16.3058 14.8469 16.9858 14.8469C17.68 14.8469 18.2325 15.4121 18.2325 16.0936V22.3552Z" fill="white"/>
<rect x="14.1666" y="8.5" width="5.66667" height="15.5833" fill="white"/>
<path d="M13.3039 11.9174C13.5259 11.7314 13.7659 11.5574 14.0239 11.3954C14.2879 11.2334 14.5699 11.0924 14.8699 10.9724C15.1699 10.8464 15.4909 10.7504 15.8329 10.6844C16.1809 10.6124 16.5559 10.5764 16.9579 10.5764C17.5219 10.5764 18.0289 10.6514 18.4789 10.8014C18.9349 10.9514 19.3219 11.1674 19.6399 11.4494C19.9579 11.7254 20.2009 12.0614 20.3689 12.4574C20.5429 12.8474 20.6299 13.2824 20.6299 13.7624C20.6299 14.2184 20.5669 14.6144 20.4409 14.9504C20.3149 15.2804 20.1559 15.5684 19.9639 15.8144C19.7719 16.0604 19.5589 16.2734 19.3249 16.4534C19.0969 16.6334 18.8779 16.8014 18.6679 16.9574C18.4639 17.1074 18.2839 17.2574 18.1279 17.4074C17.9779 17.5574 17.8819 17.7254 17.8399 17.9114L17.5879 19.1714H15.6799L15.4819 17.7224C15.4339 17.4284 15.4639 17.1734 15.5719 16.9574C15.6799 16.7354 15.8269 16.5374 16.0129 16.3634C16.2049 16.1834 16.4179 16.0154 16.6519 15.8594C16.8859 15.6974 17.1049 15.5264 17.3089 15.3464C17.5129 15.1604 17.6839 14.9564 17.8219 14.7344C17.9659 14.5064 18.0379 14.2364 18.0379 13.9244C18.0379 13.5644 17.9179 13.2794 17.6779 13.0694C17.4439 12.8534 17.1199 12.7454 16.7059 12.7454C16.3879 12.7454 16.1209 12.7784 15.9049 12.8444C15.6949 12.9104 15.5119 12.9854 15.3559 13.0694C15.2059 13.1474 15.0739 13.2194 14.9599 13.2854C14.8459 13.3514 14.7319 13.3844 14.6179 13.3844C14.3599 13.3844 14.1679 13.2734 14.0419 13.0514L13.3039 11.9174ZM14.9599 22.4204C14.9599 22.2044 14.9989 22.0034 15.0769 21.8174C15.1609 21.6314 15.2719 21.4694 15.4099 21.3314C15.5539 21.1934 15.7219 21.0854 15.9139 21.0074C16.1059 20.9234 16.3159 20.8814 16.5439 20.8814C16.7659 20.8814 16.9729 20.9234 17.1649 21.0074C17.3569 21.0854 17.5249 21.1934 17.6689 21.3314C17.8129 21.4694 17.9239 21.6314 18.0019 21.8174C18.0859 22.0034 18.1279 22.2044 18.1279 22.4204C18.1279 22.6364 18.0859 22.8404 18.0019 23.0324C17.9239 23.2184 17.8129 23.3804 17.6689 23.5184C17.5249 23.6564 17.3569 23.7644 17.1649 23.8424C16.9729 23.9204 16.7659 23.9594 16.5439 23.9594C16.3159 23.9594 16.1059 23.9204 15.9139 23.8424C15.7219 23.7644 15.5539 23.6564 15.4099 23.5184C15.2719 23.3804 15.1609 23.2184 15.0769 23.0324C14.9989 22.8404 14.9599 22.6364 14.9599 22.4204Z" fill="#FF7501" fill-opacity="0.76"/>
</svg>