<svg width="34" height="34" viewBox="0 0 34 34" fill="none" xmlns="http://www.w3.org/2000/svg">
<path fill-rule="evenodd" clip-rule="evenodd" d="M10.8656 2.83215H23.1481C27.9506 2.83215 31.1665 6.20382 31.1665 11.2188V22.7944C31.1665 27.7952 27.9506 31.1655 23.1481 31.1655H10.8656C6.06313 31.1655 2.83313 27.7952 2.83313 22.7944V11.2188C2.83313 6.20382 6.06313 2.83215 10.8656 2.83215ZM16.9856 12.8352C16.3198 12.8352 15.7673 12.2813 15.7673 11.6027C15.7673 10.9086 16.3198 10.3561 17.014 10.3561C17.694 10.3561 18.2465 10.9086 18.2465 11.6027C18.2465 12.2813 17.694 12.8352 16.9856 12.8352ZM18.2323 22.3552C18.2323 23.0352 17.6798 23.5877 16.9856 23.5877C16.3056 23.5877 15.7531 23.0352 15.7531 22.3552V16.0936C15.7531 15.4122 16.3056 14.8469 16.9856 14.8469C17.6798 14.8469 18.2323 15.4122 18.2323 16.0936V22.3552Z" fill="#FAFEFF"/>
</svg>