<svg width="683" height="330" viewBox="0 0 683 330" fill="none" xmlns="http://www.w3.org/2000/svg">
<path d="M240.536 66.4349C245.435 57.276 258.565 57.276 263.464 66.4349L356.084 239.619C360.715 248.279 354.441 258.75 344.62 258.75H159.38C149.559 258.75 143.285 248.279 147.916 239.619L240.536 66.4349Z" fill="#FF7501"/>
<g filter="url(#filter0_d)">
<path d="M58.072 89.792C58.584 89.792 59.032 90 59.416 90.416L63.112 94.4C60.296 97.664 56.872 100.208 52.84 102.032C48.84 103.856 43.992 104.768 38.296 104.768C33.368 104.768 28.888 103.92 24.856 102.224C20.824 100.496 17.384 98.096 14.536 95.024C11.688 91.92 9.48 88.208 7.912 83.888C6.344 79.568 5.56 74.816 5.56 69.632C5.56 64.448 6.376 59.696 8.008 55.376C9.64 51.056 11.928 47.344 14.872 44.24C17.848 41.136 21.4 38.736 25.528 37.04C29.656 35.312 34.216 34.448 39.208 34.448C44.104 34.448 48.424 35.232 52.168 36.8C55.912 38.368 59.208 40.496 62.056 43.184L58.984 47.456C58.792 47.776 58.536 48.048 58.216 48.272C57.928 48.464 57.528 48.56 57.016 48.56C56.44 48.56 55.736 48.256 54.904 47.648C54.072 47.008 52.984 46.304 51.64 45.536C50.296 44.768 48.616 44.08 46.6 43.472C44.584 42.832 42.104 42.512 39.16 42.512C35.608 42.512 32.36 43.136 29.416 44.384C26.472 45.6 23.928 47.376 21.784 49.712C19.672 52.048 18.024 54.896 16.84 58.256C15.656 61.616 15.064 65.408 15.064 69.632C15.064 73.92 15.672 77.744 16.888 81.104C18.136 84.464 19.816 87.312 21.928 89.648C24.072 91.952 26.584 93.712 29.464 94.928C32.376 96.144 35.512 96.752 38.872 96.752C40.92 96.752 42.76 96.64 44.392 96.416C46.056 96.16 47.576 95.776 48.952 95.264C50.36 94.752 51.656 94.112 52.84 93.344C54.056 92.544 55.256 91.6 56.44 90.512C56.984 90.032 57.528 89.792 58.072 89.792ZM91.4515 54.608C95.0035 54.608 98.2035 55.2 101.052 56.384C103.9 57.568 106.332 59.248 108.348 61.424C110.364 63.6 111.9 66.24 112.956 69.344C114.044 72.416 114.588 75.856 114.588 79.664C114.588 83.504 114.044 86.96 112.956 90.032C111.9 93.104 110.364 95.728 108.348 97.904C106.332 100.08 103.9 101.76 101.052 102.944C98.2035 104.096 95.0035 104.672 91.4515 104.672C87.8675 104.672 84.6355 104.096 81.7555 102.944C78.9075 101.76 76.4755 100.08 74.4595 97.904C72.4435 95.728 70.8915 93.104 69.8035 90.032C68.7475 86.96 68.2195 83.504 68.2195 79.664C68.2195 75.856 68.7475 72.416 69.8035 69.344C70.8915 66.24 72.4435 63.6 74.4595 61.424C76.4755 59.248 78.9075 57.568 81.7555 56.384C84.6355 55.2 87.8675 54.608 91.4515 54.608ZM91.4515 98C96.2515 98 99.8355 96.4 102.204 93.2C104.572 89.968 105.756 85.472 105.756 79.712C105.756 73.92 104.572 69.408 102.204 66.176C99.8355 62.944 96.2515 61.328 91.4515 61.328C89.0195 61.328 86.8915 61.744 85.0675 62.576C83.2755 63.408 81.7715 64.608 80.5555 66.176C79.3715 67.744 78.4755 69.68 77.8675 71.984C77.2915 74.256 77.0035 76.832 77.0035 79.712C77.0035 85.472 78.1875 89.968 80.5555 93.2C82.9555 96.4 86.5875 98 91.4515 98ZM133.488 62.432C134.544 61.248 135.664 60.176 136.848 59.216C138.032 58.256 139.28 57.44 140.592 56.768C141.936 56.064 143.344 55.536 144.816 55.184C146.32 54.8 147.936 54.608 149.664 54.608C152.32 54.608 154.656 55.056 156.672 55.952C158.72 56.816 160.416 58.064 161.76 59.696C163.136 61.296 164.176 63.232 164.88 65.504C165.584 67.776 165.936 70.288 165.936 73.04V104H157.344V73.04C157.344 69.36 156.496 66.512 154.8 64.496C153.136 62.448 150.592 61.424 147.168 61.424C144.64 61.424 142.272 62.032 140.064 63.248C137.888 64.464 135.872 66.112 134.016 68.192V104H125.424V55.376H130.56C131.776 55.376 132.528 55.968 132.816 57.152L133.488 62.432ZM211.5 74.384C211.5 72.4 211.212 70.592 210.636 68.96C210.092 67.296 209.276 65.872 208.188 64.688C207.132 63.472 205.836 62.544 204.3 61.904C202.764 61.232 201.02 60.896 199.068 60.896C194.972 60.896 191.724 62.096 189.324 64.496C186.956 66.864 185.484 70.16 184.908 74.384H211.5ZM218.412 97.184C217.356 98.464 216.092 99.584 214.62 100.544C213.148 101.472 211.564 102.24 209.868 102.848C208.204 103.456 206.476 103.904 204.684 104.192C202.892 104.512 201.116 104.672 199.356 104.672C195.996 104.672 192.892 104.112 190.044 102.992C187.228 101.84 184.78 100.176 182.7 98C180.652 95.792 179.052 93.072 177.9 89.84C176.748 86.608 176.172 82.896 176.172 78.704C176.172 75.312 176.684 72.144 177.708 69.2C178.764 66.256 180.268 63.712 182.22 61.568C184.172 59.392 186.556 57.696 189.372 56.48C192.188 55.232 195.356 54.608 198.876 54.608C201.788 54.608 204.476 55.104 206.94 56.096C209.436 57.056 211.58 58.464 213.372 60.32C215.196 62.144 216.62 64.416 217.644 67.136C218.668 69.824 219.18 72.896 219.18 76.352C219.18 77.696 219.036 78.592 218.748 79.04C218.46 79.488 217.916 79.712 217.116 79.712H184.62C184.716 82.784 185.132 85.456 185.868 87.728C186.636 90 187.692 91.904 189.036 93.44C190.38 94.944 191.98 96.08 193.836 96.848C195.692 97.584 197.772 97.952 200.076 97.952C202.22 97.952 204.06 97.712 205.596 97.232C207.164 96.72 208.508 96.176 209.628 95.6C210.748 95.024 211.676 94.496 212.412 94.016C213.18 93.504 213.836 93.248 214.38 93.248C215.084 93.248 215.628 93.52 216.012 94.064L218.412 97.184Z" fill="black"/>
<path d="M59.416 90.416L58.6812 91.0943L58.6829 91.0961L59.416 90.416ZM63.112 94.4L63.8692 95.0532L64.4536 94.3758L63.8451 93.7199L63.112 94.4ZM52.84 102.032L52.4278 101.121L52.4251 101.122L52.84 102.032ZM24.856 102.224L24.4621 103.143L24.4683 103.146L24.856 102.224ZM14.536 95.024L13.7992 95.7001L13.8027 95.7039L14.536 95.024ZM7.912 83.888L8.852 83.5468L7.912 83.888ZM8.008 55.376L8.94347 55.7294L8.008 55.376ZM14.872 44.24L14.1502 43.5479L14.1464 43.5518L14.872 44.24ZM25.528 37.04L25.908 37.965L25.9141 37.9624L25.528 37.04ZM52.168 36.8L52.5543 35.8776L52.168 36.8ZM62.056 43.184L62.8679 43.7678L63.3788 43.0574L62.7424 42.4568L62.056 43.184ZM58.984 47.456L58.1721 46.8722L58.1479 46.9059L58.1265 46.9415L58.984 47.456ZM58.216 48.272L58.7707 49.104L58.7802 49.0977L58.7895 49.0912L58.216 48.272ZM54.904 47.648L54.2943 48.4406L54.304 48.4481L54.314 48.4554L54.904 47.648ZM51.64 45.536L52.1361 44.6678L51.64 45.536ZM46.6 43.472L46.2974 44.4251L46.3043 44.4273L46.3113 44.4294L46.6 43.472ZM29.416 44.384L29.7978 45.3083L29.8063 45.3047L29.416 44.384ZM21.784 49.712L21.0472 49.0358L21.0422 49.0414L21.784 49.712ZM16.888 81.104L15.9477 81.4443L15.9506 81.4522L16.888 81.104ZM21.928 89.648L21.1862 90.3186L21.191 90.324L21.1959 90.3292L21.928 89.648ZM29.464 94.928L29.075 95.8493L29.0787 95.8508L29.464 94.928ZM44.392 96.416L44.528 97.4067L44.536 97.4056L44.5441 97.4044L44.392 96.416ZM48.952 95.264L48.6103 94.3242L48.6033 94.3268L48.952 95.264ZM52.84 93.344L53.3842 94.183L53.3896 94.1794L52.84 93.344ZM56.44 90.512L55.7784 89.7622L55.7708 89.7688L55.7634 89.7757L56.44 90.512ZM58.072 90.792C58.2737 90.792 58.4643 90.8593 58.6812 91.0943L60.1508 89.7377C59.5997 89.1407 58.8943 88.792 58.072 88.792V90.792ZM58.6829 91.0961L62.3789 95.0801L63.8451 93.7199L60.1491 89.7359L58.6829 91.0961ZM62.3548 93.7468C59.6363 96.8978 56.3311 99.3551 52.4278 101.121L53.2522 102.943C57.4129 101.061 60.9557 98.4302 63.8692 95.0532L62.3548 93.7468ZM52.4251 101.122C48.5878 102.872 43.8895 103.768 38.296 103.768V105.768C44.0945 105.768 49.0922 104.84 53.2549 102.942L52.4251 101.122ZM38.296 103.768C33.4843 103.768 29.1384 102.94 25.2437 101.302L24.4683 103.146C28.6376 104.9 33.2517 105.768 38.296 105.768V103.768ZM25.2499 101.305C21.3404 99.6293 18.0177 97.3087 15.2693 94.3441L13.8027 95.7039C16.7503 98.8833 20.3076 101.363 24.4621 103.143L25.2499 101.305ZM15.2728 94.3479C12.5218 91.3496 10.3791 87.7542 8.852 83.5468L6.972 84.2292C8.58087 88.6618 10.8542 92.4904 13.7992 95.7001L15.2728 94.3479ZM8.852 83.5468C7.32843 79.3492 6.56 74.7144 6.56 69.632H4.56C4.56 74.9176 5.35957 79.7868 6.972 84.2292L8.852 83.5468ZM6.56 69.632C6.56 64.554 7.35904 59.9235 8.94347 55.7294L7.07253 55.0226C5.39296 59.4685 4.56 64.342 4.56 69.632H6.56ZM8.94347 55.7294C10.5322 51.5239 12.7522 47.9282 15.5976 44.9282L14.1464 43.5518C11.1038 46.7598 8.74777 50.5881 7.07253 55.0226L8.94347 55.7294ZM15.5938 44.9321C18.4697 41.9325 21.904 39.6101 25.908 37.965L25.148 36.115C20.896 37.8619 17.2263 40.3395 14.1502 43.5479L15.5938 44.9321ZM25.9141 37.9624C29.9065 36.2912 34.3333 35.448 39.208 35.448V33.448C34.0987 33.448 29.4055 34.3328 25.1419 36.1176L25.9141 37.9624ZM39.208 35.448C43.9981 35.448 48.1825 36.215 51.7817 37.7224L52.5543 35.8776C48.6655 34.249 44.2099 33.448 39.208 33.448V35.448ZM51.7817 37.7224C55.4189 39.2456 58.6123 41.3088 61.3696 43.9112L62.7424 42.4568C59.8037 39.6832 56.4051 37.4904 52.5543 35.8776L51.7817 37.7224ZM61.2441 42.6002L58.1721 46.8722L59.7959 48.0398L62.8679 43.7678L61.2441 42.6002ZM58.1265 46.9415C58.0101 47.1355 57.853 47.3054 57.6425 47.4528L58.7895 49.0912C59.219 48.7906 59.5739 48.4165 59.8415 47.9705L58.1265 46.9415ZM57.6613 47.4399C57.5988 47.4816 57.4198 47.56 57.016 47.56V49.56C57.6362 49.56 58.2573 49.4463 58.7707 49.104L57.6613 47.4399ZM57.016 47.56C56.7629 47.56 56.2736 47.4103 55.494 46.8406L54.314 48.4554C55.1984 49.1017 56.1171 49.56 57.016 49.56V47.56ZM55.5137 46.8554C54.6331 46.178 53.503 45.4488 52.1361 44.6678L51.1439 46.4042C52.465 47.1592 53.5109 47.838 54.2943 48.4406L55.5137 46.8554ZM52.1361 44.6678C50.7079 43.8516 48.953 43.1372 46.8887 42.5146L46.3113 44.4294C48.279 45.0228 49.8841 45.6844 51.1439 46.4042L52.1361 44.6678ZM46.9026 42.5189C44.7588 41.8383 42.1696 41.512 39.16 41.512V43.512C42.0384 43.512 44.4092 43.8257 46.2974 44.4251L46.9026 42.5189ZM39.16 41.512C35.4888 41.512 32.1062 42.1575 29.0257 43.4633L29.8063 45.3047C32.6138 44.1145 35.7272 43.512 39.16 43.512V41.512ZM29.0342 43.4597C25.9559 44.7312 23.2905 46.5917 21.0473 49.0358L22.5207 50.3882C24.5655 48.1603 26.9881 46.4688 29.7978 45.3083L29.0342 43.4597ZM21.0422 49.0414C18.8304 51.4877 17.1191 54.455 15.8968 57.9236L17.7832 58.5883C18.9289 55.337 20.5136 52.6082 22.5258 50.3826L21.0422 49.0414ZM15.8968 57.9236C14.669 61.4082 14.064 65.3153 14.064 69.632H16.064C16.064 65.5007 16.643 61.8238 17.7832 58.5883L15.8968 57.9236ZM14.064 69.632C14.064 74.0135 14.6852 77.9558 15.9477 81.4443L17.8283 80.7637C16.6588 77.5322 16.064 73.8265 16.064 69.632H14.064ZM15.9506 81.4522C17.2367 84.9148 18.9782 87.8764 21.1862 90.3186L22.6698 88.9773C20.6538 86.7476 19.0353 84.0132 17.8254 80.7558L15.9506 81.4522ZM21.1959 90.3292C23.4354 92.7358 26.0641 94.578 29.075 95.8493L29.853 94.0068C27.1039 92.846 24.7086 91.1682 22.6601 88.9668L21.1959 90.3292ZM29.0787 95.8508C32.1205 97.121 35.3884 97.752 38.872 97.752V95.752C35.6356 95.752 32.6315 95.167 29.8493 94.0052L29.0787 95.8508ZM38.872 97.752C40.9551 97.752 42.8416 97.6382 44.528 97.4067L44.256 95.4253C42.6784 95.6418 40.885 95.752 38.872 95.752V97.752ZM44.5441 97.4044C46.2656 97.1395 47.8526 96.7401 49.3007 96.2012L48.6033 94.3268C47.2994 94.8119 45.8464 95.1805 44.2399 95.4276L44.5441 97.4044ZM49.2937 96.2038C50.7685 95.6675 52.133 94.9946 53.3842 94.183L52.2958 92.505C51.179 93.2294 49.9515 93.8365 48.6103 94.3242L49.2937 96.2038ZM53.3896 94.1794C54.6549 93.347 55.8971 92.369 57.1166 91.2483L55.7634 89.7757C54.6149 90.831 53.4571 91.741 52.2904 92.5086L53.3896 94.1794ZM57.1016 91.2618C57.5247 90.8885 57.8431 90.792 58.072 90.792V88.792C57.2129 88.792 56.4433 89.1755 55.7784 89.7622L57.1016 91.2618ZM101.051 56.384L100.668 57.3074L101.051 56.384ZM108.348 61.424L107.614 62.1036L108.348 61.424ZM112.956 69.344L112.009 69.6661L112.013 69.6778L112.956 69.344ZM112.956 90.032L112.013 89.6981L112.01 89.7069L112.956 90.032ZM108.348 97.904L107.614 97.2244V97.2244L108.348 97.904ZM101.051 102.944L101.426 103.871L101.435 103.867L101.051 102.944ZM81.7555 102.944L81.3716 103.867L81.3841 103.872L81.7555 102.944ZM74.4595 97.904L75.1931 97.2244V97.2244L74.4595 97.904ZM69.8035 90.032L68.8578 90.3571L68.8609 90.3658L69.8035 90.032ZM69.8035 69.344L68.8598 69.0132L68.8578 69.0189L69.8035 69.344ZM74.4595 61.424L75.1931 62.1036L74.4595 61.424ZM81.7555 56.384L81.3753 55.4591L81.3716 55.4606L81.7555 56.384ZM102.204 93.2L103.007 93.7948L103.01 93.791L102.204 93.2ZM85.0675 62.576L84.6525 61.6662L84.6464 61.669L85.0675 62.576ZM80.5555 66.176L79.7652 65.5631L79.7575 65.5734L80.5555 66.176ZM77.8675 71.984L76.9006 71.7288L76.8982 71.7383L77.8675 71.984ZM80.5555 93.2L79.7488 93.7911L79.7555 93.8L80.5555 93.2ZM91.4515 55.608C94.8915 55.608 97.9583 56.181 100.668 57.3074L101.435 55.4606C98.4487 54.219 95.1155 53.608 91.4515 53.608V55.608ZM100.668 57.3074C103.388 58.4385 105.7 60.0373 107.614 62.1036L109.081 60.7444C106.963 58.4587 104.411 56.6975 101.435 55.4606L100.668 57.3074ZM107.614 62.1036C109.525 64.1663 110.993 66.6808 112.009 69.6661L113.902 69.0219C112.806 65.7992 111.202 63.0337 109.081 60.7444L107.614 62.1036ZM112.013 69.6778C113.057 72.6263 113.588 75.951 113.588 79.664H115.588C115.588 75.761 115.03 72.2057 113.898 69.0101L112.013 69.6778ZM113.588 79.664C113.588 83.4101 113.057 86.7506 112.013 89.6982L113.898 90.3658C115.03 87.1694 115.588 83.5979 115.588 79.664H113.588ZM112.01 89.7069C110.995 92.6599 109.527 95.1599 107.614 97.2244L109.081 98.5836C111.2 96.2961 112.804 93.5481 113.901 90.3571L112.01 89.7069ZM107.614 97.2244C105.7 99.2907 103.388 100.89 100.668 102.021L101.435 103.867C104.411 102.63 106.963 100.869 109.081 98.5836L107.614 97.2244ZM100.677 102.017C97.9648 103.114 94.8948 103.672 91.4515 103.672V105.672C95.1122 105.672 98.4422 105.078 101.426 103.871L100.677 102.017ZM91.4515 103.672C87.9752 103.672 84.8719 103.114 82.1269 102.016L81.3841 103.872C84.3991 105.078 87.7598 105.672 91.4515 105.672V103.672ZM82.1394 102.021C79.4187 100.89 77.1075 99.2907 75.1931 97.2244L73.7259 98.5836C75.8435 100.869 78.3963 102.63 81.3716 103.867L82.1394 102.021ZM75.1931 97.2244C73.2783 95.1577 71.7932 92.6546 70.7461 89.6982L68.8609 90.3658C69.9898 93.5534 71.6087 96.2983 73.7259 98.5836L75.1931 97.2244ZM70.7492 89.7069C69.735 86.7566 69.2195 83.413 69.2195 79.664H67.2195C67.2195 83.595 67.76 87.1634 68.8578 90.3571L70.7492 89.7069ZM69.2195 79.664C69.2195 75.948 69.7347 72.6202 70.7492 69.6691L68.8578 69.0189C67.7603 72.2118 67.2195 75.764 67.2195 79.664H69.2195ZM70.7472 69.6748C71.7948 66.6861 73.28 64.1685 75.1931 62.1036L73.7259 60.7444C71.607 63.0315 69.9882 65.7939 68.8598 69.0132L70.7472 69.6748ZM75.1931 62.1036C77.1075 60.0373 79.4187 58.4385 82.1394 57.3074L81.3716 55.4606C78.3963 56.6975 75.8435 58.4587 73.7259 60.7444L75.1931 62.1036ZM82.1357 57.3089C84.8783 56.1814 87.9784 55.608 91.4515 55.608V53.608C87.7566 53.608 84.3927 54.2186 81.3753 55.4591L82.1357 57.3089ZM91.4515 99C96.4951 99 100.411 97.3034 103.007 93.7948L101.4 92.6052C99.26 95.4966 96.0079 97 91.4515 97V99ZM103.01 93.791C105.548 90.3272 106.756 85.5949 106.756 79.712H104.756C104.756 85.3491 103.595 89.6088 101.397 92.609L103.01 93.791ZM106.756 79.712C106.756 73.7985 105.549 69.0496 103.01 65.585L101.397 66.767C103.594 69.7664 104.756 74.0415 104.756 79.712H106.756ZM103.01 65.585C100.415 62.0434 96.4989 60.328 91.4515 60.328V62.328C96.0041 62.328 99.2557 63.8446 101.397 66.767L103.01 65.585ZM91.4515 60.328C88.9062 60.328 86.6315 60.7635 84.6525 61.6662L85.4825 63.4858C87.1515 62.7245 89.1328 62.328 91.4515 62.328V60.328ZM84.6464 61.669C82.709 62.5685 81.0786 63.8696 79.7653 65.5632L81.3457 66.7888C82.4644 65.3464 83.842 64.2475 85.4886 63.483L84.6464 61.669ZM79.7575 65.5734C78.4804 67.2647 77.5349 69.3252 76.9006 71.7288L78.8344 72.2392C79.4161 70.0348 80.2626 68.2233 81.3535 66.7786L79.7575 65.5734ZM76.8982 71.7383C76.2978 74.1064 76.0035 76.7672 76.0035 79.712H78.0035C78.0035 76.8968 78.2852 74.4056 78.8368 72.2297L76.8982 71.7383ZM76.0035 79.712C76.0035 85.5949 77.211 90.3272 79.7488 93.791L81.3622 92.609C79.164 89.6088 78.0035 85.3491 78.0035 79.712H76.0035ZM79.7555 93.8C82.3858 97.307 86.3488 99 91.4515 99V97C86.8262 97 83.5252 95.493 81.3555 92.6L79.7555 93.8ZM133.488 62.432L132.496 62.5583L132.773 64.7359L134.235 63.0976L133.488 62.432ZM136.848 59.216L137.478 59.9928L136.848 59.216ZM140.592 56.768L141.048 57.6581L141.056 57.6538L140.592 56.768ZM144.816 55.184L145.049 56.1566L145.056 56.1548L145.064 56.1529L144.816 55.184ZM156.672 55.952L156.266 56.8658L156.275 56.8697L156.284 56.8734L156.672 55.952ZM161.76 59.696L160.988 60.3317L160.995 60.3399L161.002 60.348L161.76 59.696ZM164.88 65.504L165.835 65.208L164.88 65.504ZM165.936 104V105H166.936V104H165.936ZM157.344 104H156.344V105H157.344V104ZM154.8 64.496L154.024 65.1266L154.03 65.1332L154.035 65.1398L154.8 64.496ZM140.064 63.248L139.582 62.372L139.576 62.3751L140.064 63.248ZM134.016 68.192L133.27 67.5262L133.016 67.8107V68.192H134.016ZM134.016 104V105H135.016V104H134.016ZM125.424 104H124.424V105H125.424V104ZM125.424 55.376V54.376H124.424V55.376H125.424ZM132.816 57.152L133.808 57.0257L133.801 56.9701L133.788 56.9156L132.816 57.152ZM134.235 63.0976C135.256 61.9521 136.337 60.9175 137.478 59.9928L136.218 58.4392C134.991 59.4344 133.832 60.5439 132.742 61.7664L134.235 63.0976ZM137.478 59.9928C138.61 59.075 139.8 58.2974 141.048 57.658L140.136 55.878C138.761 56.5826 137.454 57.437 136.218 58.4392L137.478 59.9928ZM141.056 57.6538C142.327 56.9881 143.657 56.4893 145.049 56.1566L144.584 54.2114C143.031 54.5827 141.545 55.1399 140.128 55.8822L141.056 57.6538ZM145.064 56.1529C146.478 55.7917 148.01 55.608 149.664 55.608V53.608C147.862 53.608 146.162 53.8083 144.569 54.2151L145.064 56.1529ZM149.664 55.608C152.208 55.608 154.401 56.037 156.266 56.8658L157.078 55.0382C154.911 54.075 152.432 53.608 149.664 53.608V55.608ZM156.284 56.8734C158.19 57.6779 159.752 58.831 160.988 60.3317L162.532 59.0603C161.08 57.297 159.25 55.9541 157.061 55.0306L156.284 56.8734ZM161.002 60.348C162.278 61.8317 163.256 63.6423 163.925 65.8L165.835 65.208C165.096 62.8217 163.995 60.7603 162.518 59.044L161.002 60.348ZM163.925 65.8C164.595 67.9624 164.936 70.3729 164.936 73.04H166.936C166.936 70.203 166.573 67.5895 165.835 65.208L163.925 65.8ZM164.936 73.04V104H166.936V73.04H164.936ZM165.936 103H157.344V105H165.936V103ZM158.344 104V73.04H156.344V104H158.344ZM158.344 73.04C158.344 69.2171 157.464 66.1085 155.565 63.8522L154.035 65.1398C155.529 66.9155 156.344 69.5029 156.344 73.04H158.344ZM155.576 63.8654C153.669 61.5177 150.797 60.424 147.168 60.424V62.424C150.388 62.424 152.604 63.3783 154.024 65.1266L155.576 63.8654ZM147.168 60.424C144.472 60.424 141.938 61.0744 139.582 62.3721L140.547 64.1239C142.606 62.9896 144.808 62.424 147.168 62.424V60.424ZM139.576 62.3751C137.293 63.6513 135.191 65.373 133.27 67.5262L134.762 68.8578C136.553 66.851 138.484 65.2767 140.552 64.1209L139.576 62.3751ZM133.016 68.192V104H135.016V68.192H133.016ZM134.016 103H125.424V105H134.016V103ZM126.424 104V55.376H124.424V104H126.424ZM125.424 56.376H130.56V54.376H125.424V56.376ZM130.56 56.376C131.006 56.376 131.261 56.4824 131.418 56.6057C131.575 56.7293 131.739 56.9536 131.845 57.3883L133.788 56.9156C133.606 56.1664 133.25 55.5027 132.655 55.0343C132.059 54.5656 131.331 54.376 130.56 54.376V56.376ZM131.824 57.2783L132.496 62.5583L134.48 62.3057L133.808 57.0257L131.824 57.2783ZM211.499 74.384V75.384H212.499V74.384H211.499ZM210.635 68.96L209.685 69.2707L209.689 69.2818L209.693 69.2928L210.635 68.96ZM208.188 64.688L207.432 65.3437L207.442 65.3543L207.451 65.3646L208.188 64.688ZM204.299 61.904L203.899 62.8202L203.907 62.8237L203.915 62.8271L204.299 61.904ZM189.324 64.496L190.031 65.2031V65.2031L189.324 64.496ZM184.908 74.384L183.917 74.2489L183.762 75.384H184.908V74.384ZM218.411 97.184L219.183 97.8204L219.69 97.2058L219.204 96.5743L218.411 97.184ZM214.62 100.544L215.153 101.39L215.159 101.386L215.166 101.382L214.62 100.544ZM209.868 102.848L209.53 101.907L209.524 101.909L209.868 102.848ZM204.684 104.192L204.525 103.205L204.516 103.206L204.508 103.208L204.684 104.192ZM190.044 102.992L189.665 103.918L189.678 103.923L190.044 102.992ZM182.699 98L181.966 98.68L181.971 98.6856L181.977 98.691L182.699 98ZM177.708 69.2L176.766 68.8624L176.763 68.8715L177.708 69.2ZM182.219 61.568L182.959 62.2412L182.964 62.2358L182.219 61.568ZM189.372 56.48L189.768 57.3981L189.777 57.3942L189.372 56.48ZM206.939 56.096L206.566 57.0236L206.573 57.0266L206.581 57.0293L206.939 56.096ZM213.372 60.32L212.652 61.0146L212.658 61.0209L212.664 61.0271L213.372 60.32ZM217.643 67.136L216.708 67.4883L216.709 67.492L217.643 67.136ZM184.62 79.712V78.712H183.588L183.62 79.7432L184.62 79.712ZM185.868 87.728L184.916 88.0362L184.92 88.0482L185.868 87.728ZM189.036 93.44L188.283 94.0985L188.29 94.1063L189.036 93.44ZM193.835 96.848L193.453 97.772L193.46 97.7748L193.467 97.7776L193.835 96.848ZM205.596 97.232L205.894 98.1866L205.906 98.1826L205.596 97.232ZM209.628 95.6L209.17 94.7107L209.628 95.6ZM212.411 94.016L212.958 94.8537L212.966 94.8481L212.411 94.016ZM216.012 94.064L215.195 94.6407L215.206 94.6574L215.219 94.6737L216.012 94.064ZM212.499 74.384C212.499 72.303 212.197 70.3805 211.578 68.6272L209.693 69.2928C210.226 70.8035 210.499 72.497 210.499 74.384H212.499ZM211.586 68.6493C211.002 66.8616 210.117 65.3097 208.924 64.0114L207.451 65.3646C208.434 66.4343 209.181 67.7304 209.685 69.2707L211.586 68.6493ZM208.943 64.0323C207.782 62.6959 206.358 61.6782 204.684 60.9809L203.915 62.8271C205.313 63.4098 206.481 64.2481 207.432 65.3437L208.943 64.0323ZM204.7 60.9878C203.019 60.2522 201.135 59.896 199.068 59.896V61.896C200.904 61.896 202.508 62.2118 203.899 62.8202L204.7 60.9878ZM199.068 59.896C194.765 59.896 191.242 61.1636 188.616 63.7889L190.031 65.2031C192.205 63.0284 195.178 61.896 199.068 61.896V59.896ZM188.616 63.7889C186.056 66.3492 184.514 69.8681 183.917 74.2489L185.898 74.5191C186.453 70.4519 187.855 67.3788 190.031 65.2031L188.616 63.7889ZM184.908 75.384H211.499V73.384H184.908V75.384ZM217.64 96.5476C216.652 97.745 215.465 98.7984 214.073 99.7064L215.166 101.382C216.718 100.37 218.059 99.183 219.183 97.8204L217.64 96.5476ZM214.086 99.6981C212.678 100.586 211.16 101.322 209.53 101.907L210.205 103.789C211.967 103.158 213.617 102.358 215.153 101.39L214.086 99.6981ZM209.524 101.909C207.922 102.494 206.255 102.927 204.525 103.205L204.842 105.179C206.696 104.881 208.485 104.418 210.211 103.787L209.524 101.909ZM204.508 103.208C202.772 103.518 201.055 103.672 199.355 103.672V105.672C201.176 105.672 203.011 105.506 204.859 105.176L204.508 103.208ZM199.355 103.672C196.108 103.672 193.13 103.131 190.409 102.061L189.678 103.923C192.653 105.093 195.883 105.672 199.355 105.672V103.672ZM190.422 102.066C187.735 100.967 185.404 99.3824 183.422 97.309L181.977 98.691C184.155 100.97 186.72 102.713 189.665 103.918L190.422 102.066ZM183.433 97.32C181.489 95.2243 179.954 92.6262 178.841 89.5043L176.958 90.1757C178.149 93.5178 179.814 96.3597 181.966 98.68L183.433 97.32ZM178.841 89.5043C177.735 86.4009 177.171 82.8061 177.171 78.704H175.171C175.171 82.9859 175.76 86.8151 176.958 90.1757L178.841 89.5043ZM177.171 78.704C177.171 75.414 177.668 72.358 178.652 69.5285L176.763 68.8715C175.699 71.93 175.171 75.21 175.171 78.704H177.171ZM178.649 69.5376C179.664 66.7078 181.102 64.2803 182.959 62.2412L181.48 60.8948C179.433 63.1437 177.863 65.8042 176.766 68.8624L178.649 69.5376ZM182.964 62.2358C184.815 60.1727 187.078 58.5596 189.768 57.3981L188.975 55.5619C186.033 56.8324 183.528 58.6113 181.475 60.9002L182.964 62.2358ZM189.777 57.3942C192.448 56.2103 195.475 55.608 198.876 55.608V53.608C195.236 53.608 191.927 54.2537 188.966 55.5658L189.777 57.3942ZM198.876 55.608C201.672 55.608 204.232 56.0838 206.566 57.0236L207.313 55.1684C204.719 54.1241 201.903 53.608 198.876 53.608V55.608ZM206.581 57.0293C208.946 57.939 210.965 59.2674 212.652 61.0146L214.091 59.6254C212.194 57.6606 209.925 56.173 207.298 55.1627L206.581 57.0293ZM212.664 61.0271C214.376 62.7384 215.727 64.8846 216.708 67.4883L218.579 66.7837C217.512 63.9474 216.015 61.5496 214.079 59.6129L212.664 61.0271ZM216.709 67.492C217.682 70.0459 218.18 72.9938 218.18 76.352H220.18C220.18 72.7982 219.653 69.6021 218.578 66.78L216.709 67.492ZM218.18 76.352C218.18 76.9936 218.145 77.4963 218.084 77.8733C218.021 78.2678 217.941 78.4453 217.906 78.4992L219.589 79.5808C219.842 79.1867 219.978 78.6922 220.059 78.1907C220.142 77.6717 220.18 77.0544 220.18 76.352H218.18ZM217.906 78.4992C217.883 78.5358 217.757 78.712 217.116 78.712V80.712C218.074 80.712 219.036 80.4402 219.589 79.5808L217.906 78.4992ZM217.116 78.712H184.62V80.712H217.116V78.712ZM183.62 79.7432C183.718 82.8839 184.144 85.6532 184.916 88.0362L186.819 87.4198C186.119 85.2588 185.713 82.6841 185.619 79.6808L183.62 79.7432ZM184.92 88.0482C185.723 90.4232 186.839 92.4479 188.283 94.0985L189.788 92.7815C188.544 91.3601 187.548 89.5768 186.815 87.4078L184.92 88.0482ZM188.29 94.1063C189.734 95.722 191.458 96.9463 193.453 97.772L194.218 95.924C192.501 95.2137 191.025 94.166 189.781 92.7737L188.29 94.1063ZM193.467 97.7776C195.457 98.5667 197.664 98.952 200.076 98.952V96.952C197.879 96.952 195.926 96.6013 194.204 95.9184L193.467 97.7776ZM200.076 98.952C202.289 98.952 204.235 98.7048 205.894 98.1865L205.297 96.2775C203.884 96.7192 202.15 96.952 200.076 96.952V98.952ZM205.906 98.1826C207.51 97.6589 208.906 97.0957 210.085 96.4893L209.17 94.7107C208.109 95.2563 206.817 95.7812 205.285 96.2814L205.906 98.1826ZM210.085 96.4893C211.223 95.9037 212.184 95.3584 212.958 94.8536L211.865 93.1784C211.167 93.6336 210.271 94.1443 209.17 94.7107L210.085 96.4893ZM212.966 94.8481C213.672 94.3775 214.128 94.248 214.38 94.248V92.248C213.543 92.248 212.687 92.6305 211.857 93.184L212.966 94.8481ZM214.38 94.248C214.781 94.248 215.01 94.3796 215.195 94.6407L216.828 93.4873C216.245 92.6604 215.386 92.248 214.38 92.248V94.248ZM215.219 94.6737L217.619 97.7937L219.204 96.5743L216.804 93.4543L215.219 94.6737Z" fill="black"/>
</g>
<g filter="url(#filter1_d)">
<path d="M392.088 226.88C394.744 226.88 397.08 226.528 399.096 225.824C401.144 225.12 402.856 224.144 404.232 222.896C405.64 221.616 406.696 220.096 407.4 218.336C408.104 216.576 408.456 214.64 408.456 212.528C408.456 208.144 407.096 204.72 404.376 202.256C401.688 199.792 397.592 198.56 392.088 198.56H381.048V226.88H392.088ZM392.088 191.216C396.44 191.216 400.216 191.728 403.416 192.752C406.648 193.744 409.32 195.168 411.432 197.024C413.544 198.88 415.112 201.12 416.136 203.744C417.192 206.368 417.72 209.296 417.72 212.528C417.72 215.728 417.16 218.656 416.04 221.312C414.92 223.968 413.272 226.256 411.096 228.176C408.952 230.096 406.28 231.6 403.08 232.688C399.912 233.744 396.248 234.272 392.088 234.272H381.048V260H371.784V191.216H392.088ZM477.728 245.792C478.24 245.792 478.688 246 479.072 246.416L482.768 250.4C479.952 253.664 476.528 256.208 472.496 258.032C468.496 259.856 463.648 260.768 457.952 260.768C453.024 260.768 448.544 259.92 444.512 258.224C440.48 256.496 437.04 254.096 434.192 251.024C431.344 247.92 429.136 244.208 427.568 239.888C426 235.568 425.216 230.816 425.216 225.632C425.216 220.448 426.032 215.696 427.664 211.376C429.296 207.056 431.584 203.344 434.528 200.24C437.504 197.136 441.056 194.736 445.184 193.04C449.312 191.312 453.872 190.448 458.864 190.448C463.76 190.448 468.08 191.232 471.824 192.8C475.568 194.368 478.864 196.496 481.712 199.184L478.64 203.456C478.448 203.776 478.192 204.048 477.872 204.272C477.584 204.464 477.184 204.56 476.672 204.56C476.096 204.56 475.392 204.256 474.56 203.648C473.728 203.008 472.64 202.304 471.296 201.536C469.952 200.768 468.272 200.08 466.256 199.472C464.24 198.832 461.76 198.512 458.816 198.512C455.264 198.512 452.016 199.136 449.072 200.384C446.128 201.6 443.584 203.376 441.44 205.712C439.328 208.048 437.68 210.896 436.496 214.256C435.312 217.616 434.72 221.408 434.72 225.632C434.72 229.92 435.328 233.744 436.544 237.104C437.792 240.464 439.472 243.312 441.584 245.648C443.728 247.952 446.24 249.712 449.12 250.928C452.032 252.144 455.168 252.752 458.528 252.752C460.576 252.752 462.416 252.64 464.048 252.416C465.712 252.16 467.232 251.776 468.608 251.264C470.016 250.752 471.312 250.112 472.496 249.344C473.712 248.544 474.912 247.6 476.096 246.512C476.64 246.032 477.184 245.792 477.728 245.792Z" fill="black"/>
</g>
<rect x="185" y="114" width="134" height="39" fill="white"/>
<rect x="149" y="187" width="214" height="39" fill="white"/>
<defs>
<filter id="filter0_d" x="0.560059" y="33.4478" width="223.62" height="80.32" filterUnits="userSpaceOnUse" color-interpolation-filters="sRGB">
<feFlood flood-opacity="0" result="BackgroundImageFix"/>
<feColorMatrix in="SourceAlpha" type="matrix" values="0 0 0 0 0 0 0 0 0 0 0 0 0 0 0 0 0 0 127 0"/>
<feOffset dy="4"/>
<feGaussianBlur stdDeviation="2"/>
<feColorMatrix type="matrix" values="0 0 0 0 0 0 0 0 0 0 0 0 0 0 0 0 0 0 0.25 0"/>
<feBlend mode="normal" in2="BackgroundImageFix" result="effect1_dropShadow"/>
<feBlend mode="normal" in="SourceGraphic" in2="effect1_dropShadow" result="shape"/>
</filter>
<filter id="filter1_d" x="367.784" y="190.448" width="118.984" height="78.32" filterUnits="userSpaceOnUse" color-interpolation-filters="sRGB">
<feFlood flood-opacity="0" result="BackgroundImageFix"/>
<feColorMatrix in="SourceAlpha" type="matrix" values="0 0 0 0 0 0 0 0 0 0 0 0 0 0 0 0 0 0 127 0"/>
<feOffset dy="4"/>
<feGaussianBlur stdDeviation="2"/>
<feColorMatrix type="matrix" values="0 0 0 0 0 0 0 0 0 0 0 0 0 0 0 0 0 0 0.25 0"/>
<feBlend mode="normal" in2="BackgroundImageFix" result="effect1_dropShadow"/>
<feBlend mode="normal" in="SourceGraphic" in2="effect1_dropShadow" result="shape"/>
</filter>
</defs>
</svg>
