<svg width="34" height="34" viewBox="0 0 34 34" fill="none" xmlns="http://www.w3.org/2000/svg">
<path fill-rule="evenodd" clip-rule="evenodd" d="M10.8655 2.83228H23.148C27.9505 2.83228 31.1663 6.20394 31.1663 11.2189V22.7945C31.1663 27.7954 27.9505 31.1656 23.148 31.1656H10.8655C6.06301 31.1656 2.83301 27.7954 2.83301 22.7945V11.2189C2.83301 6.20394 6.06301 2.83228 10.8655 2.83228ZM21.2639 21.2489C21.7455 20.7687 21.7455 19.9895 21.2639 19.5078L18.7422 16.9862L21.2639 14.4631C21.7455 13.9828 21.7455 13.1895 21.2639 12.7078C20.7822 12.2248 20.003 12.2248 19.5072 12.7078L16.9997 15.2281L14.478 12.7078C13.9822 12.2248 13.203 12.2248 12.7214 12.7078C12.2397 13.1895 12.2397 13.9828 12.7214 14.4631L15.243 16.9862L12.7214 19.4937C12.2397 19.9895 12.2397 20.7687 12.7214 21.2489C12.9622 21.4898 13.288 21.6187 13.5997 21.6187C13.9255 21.6187 14.2372 21.4898 14.478 21.2489L16.9997 18.7428L19.5214 21.2489C19.7622 21.5053 20.0739 21.6187 20.3855 21.6187C20.7114 21.6187 21.023 21.4898 21.2639 21.2489Z" fill="white"/>
</svg>