<svg width="34" height="34" viewBox="0 0 34 34" fill="none" xmlns="http://www.w3.org/2000/svg">
<path fill-rule="evenodd" clip-rule="evenodd" d="M10.8659 2.83325H23.1484C27.9509 2.83325 31.1667 6.20492 31.1667 11.2199V22.7955C31.1667 27.7949 27.9509 31.1666 23.1484 31.1666H10.8659C6.06337 31.1666 2.83337 27.7949 2.83337 22.7955V11.2199C2.83337 6.20492 6.06337 2.83325 10.8659 2.83325ZM16.1925 21.2358L22.9217 14.5066C23.4034 14.0249 23.4034 13.2458 22.9217 12.7499C22.44 12.2683 21.6467 12.2683 21.165 12.7499L15.3142 18.6008L12.835 16.1216C12.3534 15.6399 11.56 15.6399 11.0784 16.1216C10.5967 16.6033 10.5967 17.3824 11.0784 17.8783L14.45 21.2358C14.6909 21.4766 15.0025 21.5899 15.3142 21.5899C15.64 21.5899 15.9517 21.4766 16.1925 21.2358Z" fill="white"/>
</svg>